<svg width="28" height="28" viewBox="0 0 28 28" fill="none" xmlns="http://www.w3.org/2000/svg">
<path fill-rule="evenodd" clip-rule="evenodd" d="M2.61869 25.38C4.57335 27.3333 7.71469 27.3333 14 27.3333C20.2854 27.3333 23.428 27.3333 25.38 25.38C27.3334 23.4293 27.3334 20.2853 27.3334 14C27.3334 7.71463 27.3334 4.57196 25.38 2.61863C23.4294 0.666626 20.2854 0.666626 14 0.666626C7.71469 0.666626 4.57202 0.666626 2.61869 2.61863C0.666687 4.57329 0.666687 7.71463 0.666687 14C0.666687 20.2853 0.666687 23.428 2.61869 25.38ZM10.6667 9.66663C9.80963 9.66663 8.97183 9.92077 8.25922 10.3969C7.5466 10.8731 6.99119 11.5499 6.66321 12.3417C6.33523 13.1335 6.24941 14.0048 6.41662 14.8454C6.58382 15.6859 6.99653 16.4581 7.60256 17.0641C8.20858 17.6701 8.98071 18.0828 9.82129 18.25C10.6619 18.4172 11.5332 18.3314 12.325 18.0034C13.1168 17.6755 13.7936 17.12 14.2697 16.4074C14.7459 15.6948 15 14.857 15 14C15 13.7347 15.1054 13.4804 15.2929 13.2929C15.4804 13.1053 15.7348 13 16 13C16.2652 13 16.5196 13.1053 16.7071 13.2929C16.8947 13.4804 17 13.7347 17 14C17 15.2526 16.6286 16.4771 15.9327 17.5186C15.2367 18.5601 14.2476 19.3718 13.0903 19.8512C11.9331 20.3306 10.6597 20.456 9.43111 20.2116C8.20257 19.9672 7.07408 19.364 6.18834 18.4783C5.30261 17.5926 4.69942 16.4641 4.45505 15.2355C4.21067 14.007 4.33609 12.7336 4.81545 11.5763C5.2948 10.419 6.10656 9.4299 7.14808 8.73398C8.18959 8.03807 9.41407 7.66663 10.6667 7.66663C10.9319 7.66663 11.1863 7.77198 11.3738 7.95952C11.5613 8.14706 11.6667 8.40141 11.6667 8.66663C11.6667 8.93184 11.5613 9.1862 11.3738 9.37373C11.1863 9.56127 10.9319 9.66663 10.6667 9.66663ZM21.6667 14C21.6667 15.1492 21.2101 16.2514 20.3975 17.0641C19.5848 17.8767 18.4826 18.3333 17.3334 18.3333C17.0681 18.3333 16.8138 18.4386 16.6262 18.6262C16.4387 18.8137 16.3334 19.0681 16.3334 19.3333C16.3334 19.5985 16.4387 19.8529 16.6262 20.0404C16.8138 20.2279 17.0681 20.3333 17.3334 20.3333C18.586 20.3333 19.8105 19.9618 20.852 19.2659C21.8935 18.57 22.7052 17.5809 23.1846 16.4236C23.6639 15.2664 23.7894 13.9929 23.545 12.7644C23.3006 11.5358 22.6974 10.4073 21.8117 9.52162C20.926 8.63588 19.7975 8.03269 18.5689 7.78832C17.3404 7.54395 16.067 7.66937 14.9097 8.14872C13.7524 8.62808 12.7633 9.43984 12.0674 10.4813C11.3715 11.5229 11 12.7473 11 14C11 14.2652 11.1054 14.5195 11.2929 14.7071C11.4804 14.8946 11.7348 15 12 15C12.2652 15 12.5196 14.8946 12.7071 14.7071C12.8947 14.5195 13 14.2652 13 14C13 12.8507 13.4566 11.7485 14.2692 10.9358C15.0819 10.1232 16.1841 9.66663 17.3334 9.66663C18.4826 9.66663 19.5848 10.1232 20.3975 10.9358C21.2101 11.7485 21.6667 12.8507 21.6667 14Z" fill="#A855F7"/>
</svg>
